<?xml version="1.0" encoding="UTF-8"?>
<svg xmlns="http://www.w3.org/2000/svg" xmlns:xlink="http://www.w3.org/1999/xlink" width="16px" height="16px" viewBox="0 0 16 16" version="1.1">
<g id="surface1">
<path style=" stroke:none;fill-rule:nonzero;fill:rgb(100%,84.313725%,0%);fill-opacity:1;" d="M 15.765625 7.546875 C 15.417969 6.328125 14.085938 6.203125 13.300781 6.398438 C 12.761719 4.367188 10.113281 4.40625 8.835938 5.667969 C 8.53125 5.152344 8.398438 4.46875 8.378906 4.082031 C 8.769531 4.101562 9.164062 4.15625 9.539062 4.253906 C 9.679688 3.949219 9.679688 3.457031 9.539062 3.152344 C 9.167969 3.246094 8.769531 3.300781 8.378906 3.324219 C 8.398438 2.933594 8.453125 2.539062 8.550781 2.164062 C 8.398438 2.09375 8.199219 2.058594 8 2.058594 C 7.800781 2.058594 7.601562 2.09375 7.449219 2.164062 C 7.546875 2.535156 7.601562 2.933594 7.621094 3.324219 C 7.230469 3.300781 6.835938 3.246094 6.460938 3.152344 C 6.320312 3.457031 6.320312 3.949219 6.460938 4.253906 C 6.835938 4.15625 7.230469 4.101562 7.621094 4.082031 C 7.601562 4.46875 7.46875 5.152344 7.160156 5.667969 C 5.886719 4.40625 3.234375 4.367188 2.695312 6.398438 C 1.910156 6.203125 0.582031 6.328125 0.230469 7.546875 C -0.234375 9.167969 1.617188 9.945312 2.832031 11.582031 C 3.335938 12.257812 3.421875 12.96875 3.484375 13.449219 C 3.527344 13.789062 3.679688 13.941406 4.082031 13.941406 L 11.914062 13.941406 C 12.316406 13.941406 12.46875 13.789062 12.511719 13.449219 C 12.574219 12.972656 12.664062 12.257812 13.164062 11.582031 C 14.382812 9.945312 16.230469 9.167969 15.765625 7.546875 Z M 4.019531 12.003906 C 3.273438 10.140625 1.484375 9.097656 1.757812 8.019531 C 1.867188 7.59375 2.1875 7.324219 2.683594 7.308594 C 3.027344 8.703125 4.636719 9.824219 5.222656 11.699219 C 4.707031 11.789062 4.476562 11.859375 4.019531 12.003906 Z M 6.128906 11.566406 C 5.816406 9.554688 3.941406 8.320312 4.753906 6.851562 C 5.203125 6.042969 6.296875 6.0625 6.917969 6.453125 C 6.363281 8.175781 7.425781 9.394531 7.492188 11.433594 C 7.15625 11.4375 6.542969 11.515625 6.128906 11.566406 Z M 8.507812 11.433594 C 8.574219 9.390625 9.636719 8.175781 9.082031 6.453125 C 9.703125 6.0625 10.796875 6.042969 11.246094 6.851562 C 12.058594 8.320312 10.183594 9.554688 9.871094 11.566406 C 9.457031 11.515625 8.84375 11.4375 8.507812 11.433594 Z M 11.976562 12.003906 C 11.523438 11.859375 11.292969 11.789062 10.777344 11.699219 C 11.363281 9.824219 12.972656 8.703125 13.316406 7.308594 C 13.8125 7.324219 14.132812 7.59375 14.242188 8.019531 C 14.515625 9.097656 12.726562 10.140625 11.976562 12.003906 Z M 11.976562 12.003906 "/>
</g>
</svg>
