<?xml version="1.0" encoding="utf-8"?>
<!-- Generator: Adobe Illustrator 24.3.0, SVG Export Plug-In . SVG Version: 6.00 Build 0)  -->
<svg version="1.1" id="Layer_1" xmlns="http://www.w3.org/2000/svg" xmlns:xlink="http://www.w3.org/1999/xlink" x="0px" y="0px"
	 viewBox="0 0 800 800" style="enable-background:new 0 0 800 800;" xml:space="preserve">
<g>
	<g>
		<path d="M741.5,522.3l-56.6-23.5l-15.2-103.2c-2.2-14.7-14.8-25.6-29.7-25.6h-60V250c0-16.6-13.4-30-30-30h-93.1
			c2-9.8,3.1-19.8,3.1-30c0-96.1-88.8-167.9-184.8-146c-54.8,12.4-98.9,56.8-111.3,111.8c-4.9,21.8-5.1,43.6-0.8,64.2H70
			c-16.6,0-30,13.4-30,30v270c0,0,0,0,0,0.1v150c0,16.6,13.4,30,30,30h65.1c12.4,35,45.7,60,84.9,60s72.5-25,84.9-60h190.3
			c12.4,35,45.7,60,84.9,60c39.2,0,72.5-25,84.9-60H730c16.6,0,30-13.4,30-30V550C760,537.9,752.7,526.9,741.5,522.3z M222.4,169
			c7.3-32.5,33.9-59.2,66.1-66.5C346.7,89.2,400,132.2,400,190c0,14.8-3.7,29-10.5,41.7c-0.8,1-1.5,2-2.1,3.1
			c-0.8,1.3-0.8,1.3-1.4,2.4c-1.2,2.1-1.8,3.1-2.3,3.8c-0.1,0.2-0.3,0.4-0.4,0.6c-12.1,16.8-22.8,32.6-32.6,48
			c-0.1,0.1-0.1,0.2-0.2,0.3c-0.2,0.4-0.5,0.8-0.7,1.2c-12.3,19.4-22.9,38.1-32.4,57l-7.5,14.9l-7.4-14.8
			c-14.5-29-28.4-51.1-59.7-97.2l-1-1.5c-3.4-5-3.4-5-6.8-10c-0.8-1.8-1.5-3.1-2.4-4.7c-0.8-1.4-1.7-2.6-2.7-3.8
			C220.4,212.4,217.4,191,222.4,169z M100,280h90.1c0.6,0.8,1.2,1.8,2.2,3.2l1,1.5c29.8,43.9,42.7,64.4,55.6,90.3l34.2,68.5
			c5.2,10.4,14.9,15.9,24.8,16.5c0.2,0,0.3,0,0.5,0c0.5,0,1,0,1.5,0c0.5,0,1.1,0,1.6-0.1c0.1,0,0.3,0,0.4,0
			c10-0.6,19.7-6.2,24.8-16.5l3.4-6.8l30.9-61.8c5.8-11.6,12.2-23.2,19.2-35.1c0.1-0.1,0.1-0.2,0.2-0.4c1.1-1.8,2.1-3.6,3.2-5.4
			c0.3-0.5,0.6-1,0.9-1.5c0.9-1.4,1.8-2.9,2.6-4.3c0.5-0.7,0.9-1.5,1.4-2.3c0.7-1.2,1.5-2.4,2.3-3.6c0.6-0.9,1.2-1.9,1.8-2.8
			c0.7-1,1.3-2.1,2-3.1c0.7-1.1,1.4-2.2,2.1-3.2c0.6-0.9,1.2-1.8,1.8-2.8c0.8-1.2,1.6-2.4,2.4-3.6c0.6-0.8,1.1-1.7,1.7-2.5
			c0.9-1.3,1.7-2.6,2.6-3.8c0.5-0.8,1.1-1.6,1.6-2.4c0.9-1.3,1.8-2.7,2.8-4c0.5-0.8,1.1-1.5,1.6-2.3c1-1.4,1.9-2.8,2.9-4.2
			c0.5-0.7,1-1.5,1.6-2.2c1-1.4,2-2.9,3.1-4.3c0.3-0.4,0.5-0.7,0.8-1.1H520v120c0,0,0,0,0,0.1v90.4L100,490L100,280L100,280z
			 M220,700c-16.6,0-30-13.4-30-30c0-16.6,13.4-30,30-30s30,13.4,30,30C250,686.6,236.6,700,220,700z M580,700
			c-16.6,0-30-13.4-30-30c0-16.6,13.4-30,30-30c16.6,0,30,13.4,30,30C610,686.6,596.6,700,580,700z M700,640h-35.1
			c-0.1-0.1-0.1-0.3-0.2-0.4c-0.2-0.5-0.4-1-0.6-1.5c-0.3-0.7-0.6-1.5-0.9-2.2c-0.2-0.5-0.4-1.1-0.7-1.6c-0.3-0.7-0.6-1.4-1-2.1
			c-0.2-0.5-0.4-1-0.7-1.5c-0.5-1.1-1.1-2.2-1.7-3.3c-0.3-0.5-0.5-0.9-0.8-1.4c-0.4-0.7-0.8-1.3-1.1-2c-0.3-0.5-0.6-1.1-1-1.6
			c-0.4-0.6-0.7-1.2-1.1-1.7c-0.3-0.5-0.7-1-1-1.6c-0.4-0.6-0.8-1.2-1.2-1.7c-0.3-0.5-0.7-1-1-1.4c-0.7-0.9-1.4-1.9-2.2-2.8
			c-0.4-0.5-0.8-1-1.2-1.5c-0.4-0.5-0.8-1-1.3-1.5c-0.4-0.5-0.9-1-1.4-1.5c-0.4-0.5-0.9-0.9-1.3-1.3c-0.5-0.5-0.9-1-1.4-1.4
			c-0.5-0.4-0.9-0.9-1.4-1.3c-0.9-0.8-1.7-1.6-2.6-2.4c-0.5-0.4-0.9-0.8-1.4-1.2c-0.5-0.5-1.1-0.9-1.6-1.3c-0.5-0.4-0.9-0.7-1.4-1.1
			c-0.6-0.4-1.1-0.9-1.7-1.3c-0.5-0.3-0.9-0.7-1.4-1c-0.6-0.4-1.2-0.8-1.8-1.2c-0.5-0.3-0.9-0.6-1.4-0.9c-1.1-0.7-2.3-1.4-3.4-2.1
			c-0.5-0.3-0.9-0.5-1.4-0.8c-0.7-0.4-1.3-0.7-2-1.1c-0.5-0.3-1-0.5-1.5-0.7c-0.7-0.3-1.3-0.7-2-1c-0.5-0.2-1-0.4-1.5-0.7
			c-2.4-1.1-4.9-2.1-7.5-2.9c-0.5-0.2-1-0.3-1.5-0.5c-0.7-0.2-1.5-0.5-2.2-0.7c-0.5-0.2-1-0.3-1.6-0.4c-0.7-0.2-1.5-0.4-2.2-0.6
			c-0.5-0.1-1-0.2-1.5-0.4c-1.5-0.3-3-0.6-4.5-0.9c-0.4-0.1-0.8-0.2-1.3-0.2c-0.8-0.1-1.6-0.2-2.4-0.3c-0.5-0.1-1.1-0.1-1.7-0.2
			c-0.8-0.1-1.6-0.2-2.4-0.2c-0.6,0-1.1-0.1-1.7-0.1c-0.8-0.1-1.6-0.1-2.4-0.1c-0.5,0-1.1,0-1.6,0c-0.7,0-1.5-0.1-2.2-0.1
			s-1.5,0-2.2,0.1c-0.5,0-1.1,0-1.6,0c-0.8,0-1.6,0.1-2.4,0.1c-0.6,0-1.1,0.1-1.7,0.1c-0.8,0.1-1.6,0.1-2.4,0.2
			c-0.6,0.1-1.1,0.1-1.7,0.2c-0.8,0.1-1.6,0.2-2.4,0.3c-0.4,0.1-0.8,0.2-1.3,0.2c-1.5,0.3-3,0.6-4.5,0.9c-0.5,0.1-1,0.2-1.5,0.4
			c-0.8,0.2-1.5,0.4-2.2,0.6c-0.5,0.1-1.1,0.3-1.6,0.4c-0.7,0.2-1.5,0.4-2.2,0.7c-0.5,0.2-1,0.3-1.5,0.5c-2.5,0.9-5,1.9-7.5,2.9
			c-0.5,0.2-1,0.4-1.5,0.7c-0.7,0.3-1.4,0.6-2,1c-0.5,0.2-1,0.5-1.5,0.8c-0.7,0.3-1.3,0.7-2,1.1c-0.5,0.3-0.9,0.5-1.4,0.8
			c-1.2,0.7-2.3,1.4-3.4,2.1c-0.5,0.3-0.9,0.6-1.4,0.9c-0.6,0.4-1.2,0.8-1.8,1.2c-0.5,0.3-0.9,0.7-1.4,1c-0.6,0.4-1.2,0.9-1.7,1.3
			c-0.5,0.4-0.9,0.7-1.4,1.1c-0.6,0.4-1.1,0.9-1.6,1.3c-0.5,0.4-1,0.8-1.4,1.2c-0.9,0.8-1.7,1.6-2.6,2.4c-0.5,0.4-0.9,0.9-1.4,1.3
			c-0.5,0.5-1,1-1.4,1.4c-0.4,0.4-0.9,0.9-1.3,1.3c-0.5,0.5-0.9,1-1.4,1.5c-0.4,0.5-0.9,1-1.3,1.5c-0.4,0.5-0.8,1-1.2,1.5
			c-0.7,0.9-1.5,1.8-2.2,2.8c-0.4,0.5-0.7,1-1,1.4c-0.4,0.6-0.8,1.2-1.2,1.7c-0.4,0.5-0.7,1-1,1.6c-0.4,0.6-0.8,1.2-1.1,1.7
			c-0.3,0.5-0.7,1-1,1.6c-0.4,0.7-0.8,1.3-1.1,2c-0.3,0.5-0.5,0.9-0.8,1.4c-0.6,1.1-1.1,2.2-1.7,3.3c-0.2,0.5-0.5,1-0.7,1.5
			c-0.3,0.7-0.7,1.4-1,2.1c-0.2,0.5-0.5,1.1-0.7,1.6c-0.3,0.7-0.6,1.5-0.9,2.2c-0.2,0.5-0.4,1-0.6,1.5c-0.1,0.1-0.1,0.3-0.2,0.4
			H304.9c-0.1-0.1-0.1-0.3-0.2-0.4c-0.2-0.5-0.4-1-0.6-1.5c-0.3-0.7-0.6-1.5-0.9-2.2c-0.2-0.5-0.4-1.1-0.7-1.6
			c-0.3-0.7-0.6-1.4-1-2.1c-0.2-0.5-0.4-1-0.7-1.5c-0.5-1.1-1.1-2.2-1.7-3.3c-0.3-0.5-0.5-0.9-0.8-1.4c-0.4-0.7-0.8-1.3-1.1-2
			c-0.3-0.5-0.6-1.1-1-1.6c-0.4-0.6-0.7-1.2-1.1-1.7c-0.3-0.5-0.7-1-1-1.6c-0.4-0.6-0.8-1.2-1.2-1.7c-0.3-0.5-0.7-1-1-1.4
			c-0.7-0.9-1.4-1.9-2.2-2.8c-0.4-0.5-0.8-1-1.2-1.5c-0.4-0.5-0.8-1-1.3-1.5c-0.4-0.5-0.9-1-1.4-1.5c-0.4-0.5-0.9-0.9-1.3-1.3
			c-0.5-0.5-0.9-1-1.4-1.4c-0.5-0.4-0.9-0.9-1.4-1.3c-0.9-0.8-1.7-1.6-2.6-2.4c-0.5-0.4-0.9-0.8-1.4-1.2c-0.5-0.5-1.1-0.9-1.6-1.3
			c-0.5-0.4-0.9-0.7-1.4-1.1c-0.6-0.4-1.1-0.9-1.7-1.3c-0.5-0.3-0.9-0.7-1.4-1c-0.6-0.4-1.2-0.8-1.8-1.2c-0.5-0.3-0.9-0.6-1.4-0.9
			c-1.1-0.7-2.3-1.4-3.4-2.1c-0.5-0.3-0.9-0.5-1.4-0.8c-0.7-0.4-1.3-0.7-2-1.1c-0.5-0.3-1-0.5-1.5-0.7c-0.7-0.3-1.3-0.7-2-1
			c-0.5-0.2-1-0.4-1.5-0.7c-2.4-1.1-4.9-2.1-7.5-2.9c-0.5-0.2-1-0.3-1.5-0.5c-0.7-0.2-1.5-0.5-2.2-0.7c-0.5-0.2-1-0.3-1.6-0.4
			c-0.7-0.2-1.5-0.4-2.2-0.6c-0.5-0.1-1-0.2-1.5-0.4c-1.5-0.3-3-0.6-4.5-0.9c-0.4-0.1-0.8-0.2-1.3-0.2c-0.8-0.1-1.6-0.2-2.4-0.3
			c-0.5-0.1-1.1-0.1-1.7-0.2c-0.8-0.1-1.6-0.2-2.4-0.2c-0.6,0-1.1-0.1-1.7-0.1c-0.8-0.1-1.6-0.1-2.4-0.1c-0.5,0-1.1,0-1.6,0
			c-0.7,0-1.5-0.1-2.2-0.1s-1.5,0-2.2,0.1c-0.5,0-1.1,0-1.6,0c-0.8,0-1.6,0.1-2.4,0.1c-0.6,0-1.1,0.1-1.7,0.1
			c-0.8,0.1-1.6,0.1-2.4,0.2c-0.6,0.1-1.1,0.1-1.7,0.2c-0.8,0.1-1.6,0.2-2.4,0.3c-0.4,0.1-0.8,0.2-1.3,0.2c-1.5,0.3-3,0.6-4.5,0.9
			c-0.5,0.1-1,0.2-1.5,0.4c-0.8,0.2-1.5,0.4-2.2,0.6c-0.5,0.1-1,0.3-1.6,0.4c-0.7,0.2-1.5,0.4-2.2,0.7c-0.5,0.2-1,0.3-1.5,0.5
			c-2.5,0.9-5,1.9-7.5,2.9c-0.5,0.2-1,0.4-1.5,0.7c-0.7,0.3-1.4,0.6-2,1c-0.5,0.2-1,0.5-1.5,0.7c-0.7,0.3-1.3,0.7-2,1.1
			c-0.5,0.3-0.9,0.5-1.4,0.8c-1.2,0.7-2.3,1.4-3.4,2.1c-0.5,0.3-0.9,0.6-1.4,0.9c-0.6,0.4-1.2,0.8-1.8,1.2c-0.5,0.3-0.9,0.7-1.4,1
			c-0.6,0.4-1.2,0.9-1.7,1.3c-0.5,0.4-0.9,0.7-1.4,1.1c-0.6,0.4-1.1,0.9-1.6,1.3c-0.5,0.4-1,0.8-1.4,1.2c-0.9,0.8-1.8,1.6-2.6,2.4
			c-0.5,0.4-0.9,0.9-1.4,1.3c-0.5,0.5-1,1-1.4,1.4c-0.4,0.4-0.9,0.9-1.3,1.3c-0.5,0.5-0.9,1-1.4,1.5c-0.4,0.5-0.9,1-1.3,1.5
			c-0.4,0.5-0.8,1-1.2,1.5c-0.7,0.9-1.5,1.8-2.2,2.8c-0.4,0.5-0.7,1-1,1.4c-0.4,0.6-0.8,1.2-1.2,1.7c-0.4,0.5-0.7,1-1,1.6
			c-0.4,0.6-0.8,1.2-1.1,1.7c-0.3,0.5-0.7,1-1,1.6c-0.4,0.7-0.8,1.3-1.1,2c-0.3,0.5-0.5,0.9-0.8,1.4c-0.6,1.1-1.1,2.2-1.7,3.3
			c-0.2,0.5-0.5,1-0.7,1.5c-0.3,0.7-0.7,1.4-1,2.1c-0.2,0.5-0.5,1.1-0.7,1.6c-0.3,0.7-0.6,1.4-0.9,2.2c-0.2,0.5-0.4,1-0.6,1.5
			c-0.1,0.1-0.1,0.3-0.2,0.4H100v-90l450,0.4c14.5,0,26.6-10.3,29.4-24c0.4-2,0.6-4,0.6-6.1V430h34.1l13.9,94.4
			c1.5,10.4,8.4,19.3,18.2,23.3L700,570L700,640L700,640z"/>
	</g>
</g>
</svg>
