<?xml version="1.0" encoding="utf-8"?>
<!-- Generator: Adobe Illustrator 24.3.0, SVG Export Plug-In . SVG Version: 6.00 Build 0)  -->
<svg version="1.1" id="Слой_1" xmlns="http://www.w3.org/2000/svg" xmlns:xlink="http://www.w3.org/1999/xlink" x="0px" y="0px"
	 viewBox="0 0 700 700" style="enable-background:new 0 0 700 700;" xml:space="preserve">
<g>
	<path d="M267.6,439.9c2.6,2.4,5.9,3.6,9.2,3.6c3.7,0,7.5-1.5,10.1-4.5l146.2-159.5c5.2-5.6,4.7-14.3-0.9-19.5
		c-5.5-5.2-14.2-4.7-19.4,0.9L266.7,420.4C261.6,426.1,262,434.7,267.6,439.9L267.6,439.9z"/>
	<path d="M276.9,342.8c24.9,0,45.1-20.2,45.1-45.1c0-24.9-20.2-45.1-45.1-45.1s-45.1,20.2-45.1,45.1
		C231.9,322.6,252,342.8,276.9,342.8z M276.9,280.3c9.7,0,17.6,7.9,17.6,17.6s-7.9,17.6-17.6,17.6s-17.6-7.8-17.6-17.6
		C259.3,288.1,267.2,280.3,276.9,280.3z"/>
	<path d="M378.1,402.2c0,24.9,20.2,45.1,45.1,45.1c24.9,0,45.1-20.2,45.1-45.1c0-24.9-20.2-45.1-45.1-45.1
		C398.2,357.1,378.1,377.4,378.1,402.2z M440.6,402.2c0,9.7-7.9,17.6-17.6,17.6s-17.6-7.9-17.6-17.6s7.9-17.6,17.6-17.6
		C432.8,384.6,440.6,392.5,440.6,402.2z"/>
	<path d="M74.1,343.3c-0.3,12.2,5.6,24.1,16.3,32.4l36.5,28.9l-19.2,42.6c-5.4,12.2-5.2,25.3,0.7,36c5.8,10.6,16.8,17.8,30.1,19.8
		l46.1,6.5l4.8,45.9c1.2,13.3,7.8,24.5,18,30.9c5.8,3.6,12.6,5.5,19.7,5.5c5.4,0,11.1-1.1,16.6-3.3L287,571l27.2,37.6
		c7.8,10.8,19.4,17,31.3,17.4c0.2,0,0.6,0,0.8,0c11.9,0,23.3-5.8,31.7-16.3l28.6-36.8l42.2,18.6c5.9,2.8,12.1,4.1,18,4.1
		c6.4,0,12.4-1.5,17.9-4.6c10.8-5.9,17.8-17,19.6-30.4l6.3-46.1l46.1-5.2c13.4-1.4,24.8-8.4,30.9-18.8c6.2-10.6,6.7-23.7,1.5-35.9
		l-18-43.1l37.6-27.7c10.8-7.8,17.1-19.2,17.2-31.4c0.1-12.2-5.8-23.9-16.6-32.1L572.2,292l18.4-42.6c5.4-12.2,5.1-25.3-0.9-36
		c-5.9-10.7-17-17.7-30.5-19.5l-46.1-5.6l-5.6-45.9c-1.4-13.4-8.4-24.6-18.8-30.9c-10.6-6.2-23.6-6.8-36.1-1.5l-43,18l-27.7-37
		c-8-10.8-19.7-16.9-31.9-17.1c-12.2,0-23.8,6.2-31.9,17.1L293,124.7l-38.3-17.6c-12.3-5.6-25.3-5.5-36,0.2
		c-10.7,5.8-17.9,16.7-19.9,30.1l-6.8,46l-46.3,4.3c-13.4,1.3-24.8,7.8-31.1,18.2c-6.4,10.3-7.3,23.4-2.3,36.1l17.3,43.3l-37.8,27.1
		C80.8,320,74.5,331.3,74.1,343.3L74.1,343.3z M107.6,334.8l46.8-33.4c0.2-0.2,0.4-0.6,0.7-0.8c0.8-0.5,1.3-1.3,2-2.1
		c0.6-0.7,1-1.3,1.4-2.1c0.4-0.8,0.7-1.5,0.9-2.4c0.2-0.9,0.6-1.6,0.6-2.6c0.1-0.9,0-1.8-0.1-2.6c-0.1-0.9-0.2-1.8-0.4-2.6
		c-0.1-0.3-0.1-0.8-0.2-1.1l-21.2-53.2c-1.8-4.5-1.8-8.6,0.1-11.6c1.9-3,5.5-4.8,10.3-5.3l57.1-5.3c0.6,0,1-0.3,1.5-0.4
		c1-0.2,2-0.4,3-0.9c0.7-0.3,1.2-0.7,1.9-1.1c0.8-0.5,1.5-1.1,2.2-1.8c0.6-0.6,0.9-1.1,1.4-1.7c0.6-0.8,1-1.6,1.3-2.5
		c0.2-0.7,0.6-1.4,0.8-2.2c0.1-0.3,0.3-0.7,0.4-1.1l8.4-56.8c0.8-4.7,2.8-8.4,5.8-9.9c3-1.6,7-1.4,11.3,0.6l48.4,22.3
		c5.9,2.8,12.9,0.9,16.7-4.3l31.7-42.5c3-3.8,6.4-6.1,9.9-6.1c3.5,0.1,6.9,2.2,9.8,6.1l34.2,45.6c0.2,0.3,0.5,0.4,0.8,0.7
		c0.7,0.8,1.3,1.3,2.2,1.9c0.7,0.5,1.3,1,2.1,1.3c0.8,0.3,1.7,0.7,2.5,0.9s1.6,0.6,2.6,0.6c0.8,0,1.6,0,2.5-0.1
		c1-0.1,1.9-0.2,2.8-0.6c0.3-0.1,0.8-0.1,1.1-0.2l52.9-22.3c4.4-1.9,8.5-1.9,11.4-0.1c3,1.8,5,5.4,5.4,10.3l7,56.8
		c0,0.4,0.2,0.7,0.3,1.1c0.1,0.9,0.4,1.5,0.8,2.3c0.3,0.9,0.8,1.6,1.2,2.4c0.3,0.7,0.9,1.2,1.4,1.8c0.6,0.7,1.3,1.3,2.2,1.9
		c0.5,0.4,1.2,0.8,1.9,1.1c0.9,0.4,1.9,0.8,3,1c0.4,0.1,0.9,0.4,1.3,0.4l56.1,7.1c4.7,0.7,8.2,2.6,10,5.7c1.8,3,1.6,7-0.3,11.4
		L542.7,291c-0.1,0.3-0.1,0.7-0.2,1c-0.3,1-0.4,1.9-0.6,2.9c-0.1,0.9-0.2,1.6-0.1,2.4c0.1,0.9,0.2,1.8,0.5,2.6
		c0.2,0.9,0.4,1.6,0.9,2.4c0.3,0.8,0.9,1.4,1.4,2.2c0.6,0.7,1.1,1.4,1.8,2c0.2,0.2,0.4,0.5,0.8,0.8l45.5,34.8c3.7,3,5.8,6.4,5.7,9.9
		c-0.1,3.4-2.1,6.7-5.9,9.6l-46.3,34.1c-0.3,0.2-0.4,0.5-0.8,0.8c-0.8,0.7-1.3,1.3-1.9,2.1c-0.5,0.7-1.1,1.3-1.4,2.1
		c-0.3,0.8-0.7,1.5-0.9,2.4c-0.2,0.9-0.4,1.6-0.5,2.6c-0.1,0.9,0,1.8,0.1,2.5c0.1,0.9,0.2,1.9,0.5,2.8c0.1,0.3,0.1,0.8,0.2,1.1
		l21.9,53c1.9,4.4,1.9,8.4,0.1,11.3c-1.8,3-5.4,4.9-10.2,5.4l-56.8,6.3c-0.2,0-0.6,0.2-0.8,0.2c-1.2,0.2-2.2,0.6-3.3,1
		c-0.6,0.2-1.2,0.6-1.8,0.9c-0.8,0.5-1.5,1.2-2.2,1.9s-1.2,1.2-1.6,1.9c-0.6,0.7-0.8,1.4-1.2,2.2c-0.4,0.9-0.8,1.9-1,2.9
		c0,0.3-0.2,0.6-0.3,1l-7.7,56.8c-0.7,4.8-2.6,8.2-5.6,10c-3,1.7-6.9,1.5-11.4-0.5l-52.2-23c-0.3-0.1-0.7-0.1-1-0.2
		c-1-0.3-1.9-0.5-2.9-0.5c-0.8-0.2-1.5-0.2-2.3-0.2c-1,0-2,0.2-3,0.5c-0.8,0.2-1.4,0.4-2.1,0.8c-0.9,0.3-1.6,0.9-2.4,1.5
		c-0.7,0.6-1.3,1-2,1.8c-0.2,0.2-0.6,0.4-0.8,0.7l-35.1,45.2c-3.1,3.8-6.5,5.7-10.2,5.8c-3.5-0.1-6.9-2.2-9.7-6.1l-33.4-46.3
		c-0.2-0.3-0.5-0.4-0.8-0.8c-0.7-0.8-1.3-1.3-2.1-1.9c-0.7-0.6-1.3-1-2.1-1.4c-0.8-0.3-1.5-0.7-2.4-0.9s-1.7-0.5-2.5-0.5
		c-0.9-0.1-1.6,0-2.5,0.1c-0.9,0.1-1.9,0.2-2.8,0.5c-0.3,0.1-0.8,0-1.1,0.2l-53.1,21.6c-4.6,1.9-8.7,1.8-11.8,0
		c-2.9-1.8-4.6-5.3-5.1-10.1l-5.9-56.8c0-0.3-0.2-0.7-0.3-1c-0.2-1-0.4-1.9-0.9-2.9c-0.3-0.8-0.6-1.4-1-2.1
		c-0.6-0.8-1.2-1.4-1.9-2.1c-0.6-0.7-1.2-1.2-1.9-1.6c-0.7-0.4-1.4-0.8-2.2-1.1c-0.9-0.4-1.8-0.8-2.8-1c-0.3-0.1-0.6-0.2-0.9-0.3
		l-56.6-8c-4.7-0.7-8.4-2.8-10-5.8c-1.8-3.1-1.5-7.1,0.3-11.4l23.7-52.2c0.1-0.3,0.1-0.7,0.2-1c0.3-0.9,0.6-1.9,0.7-2.9
		c0.1-0.8,0.2-1.6,0.2-2.4c0-0.9-0.2-1.8-0.4-2.6c-0.2-0.9-0.4-1.6-0.8-2.4c-0.3-0.8-0.8-1.5-1.3-2.2c-0.6-0.8-1.1-1.4-1.8-2.1
		c-0.2-0.2-0.4-0.5-0.8-0.9l-45-35.5c-3.8-3-5.8-6.6-5.7-10.1C101.7,340.8,103.8,337.5,107.6,334.8L107.6,334.8z"/>
</g>
</svg>
