<?xml version="1.0" encoding="utf-8"?>
<!-- Generator: Adobe Illustrator 24.3.0, SVG Export Plug-In . SVG Version: 6.00 Build 0)  -->
<svg version="1.1" id="Layer_1" xmlns="http://www.w3.org/2000/svg" xmlns:xlink="http://www.w3.org/1999/xlink" x="0px" y="0px"
	 viewBox="0 0 800 800" style="enable-background:new 0 0 800 800;" xml:space="preserve">
<g>
	<g>
		<g>
			<path d="M720,479.7V154.4c0-41.1-33.3-74.4-74.4-74.4H154.4C113.3,80,80,113.3,80,154.4V480c0,0.1,0,0.2,0,0.3v58.6
				c0,41.1,33.3,74.4,74.4,74.4h131.4l-13.3,53.3h-5.8c-14.7,0-26.7,11.9-26.7,26.7c0,14.7,11.9,26.7,26.7,26.7h26.7h213.3h26.7
				c14.7,0,26.7-11.9,26.7-26.7c0-14.7-11.9-26.7-26.7-26.7h-5.8l-13.3-53.3h131.4c41.1,0,74.4-33.3,74.4-74.4V480
				C720,479.9,720,479.8,720,479.7z M133.3,154.4c0-11.6,9.4-21.1,21.1-21.1h491.1c11.6,0,21.1,9.4,21.1,21.1v298.9H133.3V154.4z
				 M472.5,666.7h-145l13.3-53.3h118.4L472.5,666.7z M666.7,538.9c0,11.6-9.4,21.1-21.1,21.1H480H320H154.4
				c-11.6,0-21.1-9.4-21.1-21.1v-32.2h533.3V538.9z"/>
			<path d="M533.8,266.7h-34.1l-20.6-61.8c-4.7-14-19.8-21.5-33.7-16.9c-14,4.7-21.5,19.8-16.9,33.7l15,44.9h-86l15-44.9
				c4.7-14-2.9-29.1-16.9-33.7c-14-4.7-29.1,2.9-33.7,16.9l-20.6,61.8h-34.1c-19.8,0-32.7,20.9-23.9,38.6l53.3,106.7
				c4.5,9,13.8,14.7,23.9,14.7h160c10.1,0,19.3-5.7,23.9-14.7l53.3-106.7C566.5,287.5,553.6,266.7,533.8,266.7z M464,373.3h-127
				L310.3,320h9.6c0,0,0.1,0,0.1,0h160.9c0,0,0.1,0,0.1,0h9.6L464,373.3z"/>
		</g>
	</g>
</g>
</svg>
