<?xml version="1.0" encoding="utf-8"?>
<!-- Generator: Adobe Illustrator 24.3.0, SVG Export Plug-In . SVG Version: 6.00 Build 0)  -->
<svg version="1.1" id="Capa_1" xmlns="http://www.w3.org/2000/svg" xmlns:xlink="http://www.w3.org/1999/xlink" x="0px" y="0px"
	 viewBox="0 0 800 800" style="enable-background:new 0 0 800 800;" xml:space="preserve">
<style type="text/css">
	.st0{fill:#010002;}
</style>
<g>
	<g>
		<path class="st0" d="M706.5,434.3c6-7.8,8.9-17.9,6.3-28.1L634,104.3c-4.6-17.4-22.3-27.9-39.5-23.3L91.2,215.2
			c-17.2,4.6-27.5,22.6-23,40L147,557c4.5,17.4,22.3,27.9,39.6,23.3l177.8-47.4V634c0,56.5,92.6,86.1,184.2,86.1
			c91.5,0,184.3-29.6,184.3-86.1V480.7C732.9,462.3,722.9,446.8,706.5,434.3z M649.5,330.2l8.2,31.4l-100,26.7l-8.2-31.5
			L649.5,330.2z M591.5,131.3l15.6,59.9l-156.3,41.7l-15.6-59.9L591.5,131.3z M521.4,364.4l8,30.7c-37,1.7-73,8.2-101.9,19.4
			l-6.1-23.3L521.4,364.4z M173.1,490.9l-8.2-31.4l100-26.8l8.2,31.5L173.1,490.9z M293.1,425.3l100-26.7l7.6,28.8
			c-2.4,1.5-4.7,3.1-6.9,4.7l-92.4,24.7L293.1,425.3z M699.5,631.5c0,33-67.5,59.7-150.9,59.7c-83.3,0-150.9-26.7-150.9-59.7v-37.1
			c0-1.2,0.7-2.4,0.9-3.6c4.8,31.3,69.7,56,150,56c80.3,0,145.3-24.8,150-56c0.2,1.2,0.9,2.3,0.9,3.6V631.5z M699.5,558.5
			c0,32.9-67.5,59.6-150.9,59.6c-83.3,0-150.9-26.7-150.9-59.6v-37.1c0-1.2,0.7-2.4,0.9-3.6c4.8,31.2,69.7,56.1,150,56.1
			c80.3,0,145.3-24.8,150-56.1c0.2,1.2,0.9,2.3,0.9,3.6V558.5z M548.6,540.3c-83.3,0-150.9-26.7-150.9-59.6
			c0-32.9,67.6-59.6,150.9-59.6c83.4,0,150.9,26.7,150.9,59.6C699.5,513.6,632,540.3,548.6,540.3z"/>
	</g>
</g>
</svg>
