<?xml version="1.0" encoding="utf-8"?>
<!-- Generator: Adobe Illustrator 24.3.0, SVG Export Plug-In . SVG Version: 6.00 Build 0)  -->
<svg version="1.1" id="Слой_1" xmlns="http://www.w3.org/2000/svg" xmlns:xlink="http://www.w3.org/1999/xlink" x="0px" y="0px"
	 viewBox="0 0 700 700" style="enable-background:new 0 0 700 700;" xml:space="preserve">
<style type="text/css">
	.st0{fill-rule:evenodd;clip-rule:evenodd;}
</style>
<g>
	<path class="st0" d="M512.9,232c0,24.8-20.1,44.9-44.9,44.9c-24.8,0-44.9-20.1-44.9-44.9c0-24.8,20.1-44.9,44.9-44.9
		C492.8,187.1,512.9,207.2,512.9,232"/>
	<path class="st0" d="M326.6,95.5c15.1-15.1,36-22.8,57.2-21.2L569,88.6c22.7,1.7,40.7,19.8,42.4,42.4l14.3,185.2
		c1.6,21.3-6.1,42.1-21.2,57.2L373.4,604.5c-28.5,28.5-74.7,28.5-103.2,0L95.5,429.8c-28.5-28.5-28.5-74.7,0-103.2L326.6,95.5
		L326.6,95.5z M353.8,122.7L122.7,353.8c-13.4,13.4-13.4,35.3,0,48.8l174.8,174.8c13.5,13.4,35.3,13.4,48.8,0l231.1-231.1
		c7.1-7.1,10.8-17,10-27l-14.2-185.2c-0.3-3.7-3.3-6.7-7-7l-185.2-14.2C370.8,111.9,360.9,115.6,353.8,122.7L353.8,122.7z"/>
</g>
</svg>
