<?xml version="1.0" encoding="utf-8"?>
<!-- Generator: Adobe Illustrator 24.3.0, SVG Export Plug-In . SVG Version: 6.00 Build 0)  -->
<svg version="1.1" id="Слой_1" xmlns="http://www.w3.org/2000/svg" xmlns:xlink="http://www.w3.org/1999/xlink" x="0px" y="0px"
	 viewBox="0 0 700 700" style="enable-background:new 0 0 700 700;" xml:space="preserve">
<g>
	<path d="M350,172.8c-97.7,0-177.2,79.6-177.2,177.2c0,97.7,79.6,177.2,177.2,177.2S527.2,447.7,527.2,350S447.7,172.8,350,172.8z
		 M450.9,321.6L339,433.5c-3.9,3.9-9.7,3.9-13.6,0l-76.3-76.3c-3.9-3.9-3.9-9.7,0-13.6l31.6-31.6c3.9-3.9,9.7-3.9,13.6,0l38.1,38.1
		l73.7-73.7c3.9-3.9,9.7-3.9,13.6,0l31.6,31.6C454.8,311.9,454.8,317.7,450.9,321.6L450.9,321.6z"/>
	<path d="M654.7,356.2c3.2-3.9,3.2-9,0-12.2l-36.3-42.7c-2-2.5-2.5-5.8-2-9l17.4-53c1.3-4.5-0.7-9.7-4.5-11.7l-49.8-25.2
		c-3.2-1.3-5.2-4.5-5.2-7.7l-4.5-56.2c0-4.5-3.9-8.4-8.4-8.4l-56.2-4.5c-3.2,0-6.5-2-7.7-5.2l-25.2-49.8c-2-4.5-7.2-6.5-11.7-4.5
		l-52.4,17.4c-3.2,1.3-6.5,0.7-9-2l-42.7-36.3c-3.9-3.2-9-3.2-12.2,0l-42.7,36.3c-2.5,2-5.8,2.5-9,2l-53.1-17.6
		c-4.5-1.3-9.7,0.7-11.7,4.5l-25.2,49.8c-1.3,3.2-4.5,5.2-7.7,5.2l-56.2,4.5c-4.5,0-8.4,3.9-8.4,8.4l-4.5,56.2c0,3.2-2,6.5-5.2,7.7
		l-49.8,25.2c-4.5,2-6.5,7.2-4.5,11.7l17.4,53c1.3,3.2,0.7,6.5-2,9l-36.3,42c-3.2,3.9-3.2,9,0,12.2l36.3,42c2,2.5,2.5,5.8,2,9
		l-18.1,54.3c-1.3,4.5,0.7,9.7,4.5,11.7l49.8,25.2c3.2,1.3,5.2,4.5,5.2,7.7l4.5,55.7c0.7,4.5,3.9,8.4,9,9l55.7,4.5
		c3.2,0,6.5,2,7.7,5.2l25.2,49.8c2,4.5,7.2,6.5,11.7,4.5l53-17.4c3.2-1.3,6.5-0.7,9,2l42,36.3c3.9,3.2,9,3.2,12.2,0l42-36.3
		c2.5-2,5.8-2.5,9-2l53,17.4c4.5,1.3,9.7-0.7,11.7-4.5l25.2-49.8c1.3-3.2,4.5-5.2,7.7-5.2l55.7-4.5c4.5-0.7,8.4-3.9,9-9l4.5-55.7
		c0-3.2,2-6.5,5.2-7.7l49.8-25.2c4.5-2,6.5-7.2,4.5-11.7l-16.2-53c-1.3-3.2-0.7-6.5,2-9L654.7,356.2z M350,556.7
		c-113.9,0-207-92.5-207-207s92.5-207,207-207s207,92.5,207,207S463.9,556.7,350,556.7z"/>
</g>
</svg>
